<?xml version="1.0" encoding="utf-8"?>
<!-- Generator: Adobe Illustrator 15.1.0, SVG Export Plug-In  -->
<!DOCTYPE svg PUBLIC "-//W3C//DTD SVG 1.1//EN" "http://www.w3.org/Graphics/SVG/1.1/DTD/svg11.dtd" [
	<!ENTITY ns_flows "http://ns.adobe.com/Flows/1.0/">
]>
<svg version="1.1"
	 xmlns="http://www.w3.org/2000/svg" xmlns:xlink="http://www.w3.org/1999/xlink" xmlns:a="http://ns.adobe.com/AdobeSVGViewerExtensions/3.0/"
	 x="0px" y="0px" width="110px" height="65px" viewBox="0 0 110 65" style="enable-background:new 0 0 110 65;"
	 xml:space="preserve">
<defs>
</defs>
<path style="fill:#ffffff;stroke:#FFFFFF;stroke-linecap:round;stroke-linejoin:round;" d="M14.3,30.2l4.4,2.5L15,18.9L1.1,22.6
	l4.4,2.6l-4.6,7.9c-0.6,1-0.6,2.6,0,3.5l4.8,8.3c0.3,0.6,0.9,1.1,1.6,1.4c0,0,0,0,0,0c0.1,0.1,0.3,0.2,0.5,0.2c0,0,0,0,0,0
	c0.1,0,0.2,0,0.3,0.1c0,0,0,0,0,0c0.1,0,0.2,0,0.3,0c0,0,0,0,0,0c0,0,0,0,0,0c0.1,0,0.1,0,0.2,0l0,0l0.7,0h13.2v-3.7v-6.5H10.7
	L14.3,30.2z"/>
<path style="fill:#ffffff;stroke:#FFFFFF;stroke-linecap:round;stroke-linejoin:round;" d="M20.7,19.2l5.9-10.2l3.6,6.2l-4.4,2.5
	l13.9,3.8l3.8-13.9l-4.4,2.5l-4.5-7.9c-0.6-1-1.9-1.8-3-1.8l-9.5,0c-0.6,0-1.4,0.3-2,0.7c-0.3,0.1-0.5,0.4-0.8,0.7
	c0,0,0,0.1-0.1,0.1c0,0,0,0,0,0c0,0.1-0.1,0.1-0.1,0.2l0,0l-0.4,0.6l-6.6,11.4l3.2,1.9L20.7,19.2z"/>
<path style="fill:#ffffff;stroke:#FFFFFF;stroke-linecap:round;stroke-linejoin:round;" d="M52.6,34.3L52.6,34.3L52.6,34.3
	c0-0.3,0-0.6-0.2-0.9c0-0.1,0-0.1-0.1-0.2l0,0l0,0c0-0.1-0.1-0.1-0.1-0.2l0,0l-0.4-0.6L45.2,21L42,22.9l-5.6,3.3l5.9,10.1l-7.2,0.1
	l0-5.1L25.1,41.5l10.3,10.1l0-5.1l9.1-0.1c1.1,0,2.5-0.8,3-1.8l4.7-8.3C52.5,35.8,52.6,35,52.6,34.3z"/>
</svg>
