<?xml version="1.0" encoding="utf-8"?>
<!-- Generator: Adobe Illustrator 15.1.0, SVG Export Plug-In  -->
<!DOCTYPE svg PUBLIC "-//W3C//DTD SVG 1.1//EN" "http://www.w3.org/Graphics/SVG/1.1/DTD/svg11.dtd" [
	<!ENTITY ns_flows "http://ns.adobe.com/Flows/1.0/">
]>
<svg version="1.1"
	 xmlns="http://www.w3.org/2000/svg" xmlns:xlink="http://www.w3.org/1999/xlink" xmlns:a="http://ns.adobe.com/AdobeSVGViewerExtensions/3.0/"
	 x="0px" y="0px" width="110px" height="65px" viewBox="0 0 110 65" enable-background="new 0 0 110 65"
	 xml:space="preserve">
<defs>
</defs>
<ellipse fill="#ffffff" cx="17.281" cy="47.368" rx="5.849" ry="5.566"/>
<ellipse fill="#ffffff" cx="55.846" cy="47.368" rx="5.846" ry="5.566"/>
<path fill="#ffffff" d="M49.84,43.857c0,0.335-0.268,0.605-0.593,0.605H24.379c-0.325,0-0.591-0.271-0.591-0.605v-0.966
	c0-0.336,0.267-0.607,0.591-0.607h24.868c0.325,0,0.593,0.271,0.593,0.607V43.857z"/>
<path fill="#ffffff" d="M20.559,23.092H9.246c-0.505,0-1.228,0-1.597,0c-0.368,0-0.843,0.38-1.049,0.845l-6.223,13.88
	C0.171,38.28,0,39.076,0,39.583v7.853c0,0.509,0.415,0.925,0.925,0.925h5.773c0.509,0,1.142-0.356,1.402-0.791
	c0,0,5.108-8.448,10.836-8.448c0.365,0,0.365,0,0.365,0c0.4,0.028,1.052,0.049,1.454,0.049c0.4,0,0.727-0.415,0.727-0.925V24.018
	C21.483,23.509,21.07,23.092,20.559,23.092z M14.866,34.827c0,0.509-0.418,0.925-0.924,0.925H4.167
	c-0.509,0-0.757-0.379-0.548-0.843L7.8,25.586c0.206-0.465,0.64-0.843,0.963-0.843s1.001,0,1.511,0h3.667
	c0.506,0,0.924,0.417,0.924,0.923V34.827z"/>
<path fill="#ffffff" d="M74.36,47.368c0,3.074-2.621,5.566-5.848,5.566c-3.231,0-5.849-2.492-5.849-5.566
	c0-3.073,2.617-5.567,5.849-5.567C71.739,41.801,74.36,44.295,74.36,47.368z"/>
<path fill="#ffffff" d="M74.099,40.546c0.168,0,0.247-0.123,0.177-0.276L64.109,18.852c-0.071-0.152-0.268-0.279-0.438-0.279h-3.926
	c-0.168,0-0.446,0-0.614,0h-8.187c-0.169,0-0.446,0-0.617,0H23.11c-0.169,0-0.306,0.139-0.306,0.308v21.358
	c0,0.168,0.137,0.307,0.306,0.307h27.217c0.171,0,0.448,0,0.617,0H74.099z"/>
<path fill="#ffffff" d="M72.16,0c-5.089,0-9.212,4.271-9.212,9.537c0,5.268,4.123,9.538,9.212,9.538c5.086,0,9.209-4.27,9.209-9.538
	C81.369,4.271,77.246,0,72.16,0z M72.16,17.731c-4.375,0-7.917-3.667-7.917-8.194c0-4.525,3.542-8.193,7.917-8.193
	c4.368,0,7.912,3.668,7.912,8.193C80.072,14.063,76.528,17.731,72.16,17.731z"/>
<path fill="#ffffff" d="M72.16,2.217c-3.907,0-7.074,3.277-7.074,7.32c0,4.044,3.167,7.321,7.074,7.321
	c3.903,0,7.069-3.277,7.069-7.321C79.229,5.495,76.063,2.217,72.16,2.217z M76.553,6.729l-3.579,3.703
	c-0.016,0.024-0.036,0.049-0.057,0.072l-0.065,0.065c-0.215,0.222-0.56,0.222-0.777,0l-4.267-4.42c-0.215-0.222-0.215-0.582,0-0.804
	l0.065-0.066c0.211-0.222,0.563-0.222,0.775,0l3.812,3.947l3.252-3.369c0.181-0.186,0.497-0.159,0.715,0.063l0.064,0.067
	C76.707,6.208,76.733,6.54,76.553,6.729z"/>
</svg>
