<?xml version="1.0" encoding="utf-8"?>
<!-- Generator: Adobe Illustrator 15.1.0, SVG Export Plug-In  -->
<!DOCTYPE svg PUBLIC "-//W3C//DTD SVG 1.1//EN" "http://www.w3.org/Graphics/SVG/1.1/DTD/svg11.dtd" [
	<!ENTITY ns_flows "http://ns.adobe.com/Flows/1.0/">
]>
<svg version="1.1"
	 xmlns="http://www.w3.org/2000/svg" xmlns:xlink="http://www.w3.org/1999/xlink" xmlns:a="http://ns.adobe.com/AdobeSVGViewerExtensions/3.0/"
	 x="0px" y="0px" width="110px" height="65px" viewBox="0 0 110 65" style="enable-background:new 0 0 110 65;"
	 xml:space="preserve">
<defs>
</defs>
<path style="fill:#ffffff;" d="M13.9,0L13.9,0C6.2,0,0,6.3,0,14.1c0,2.2,1.4,5.9,4.3,9.7c5.4,6.9,9.2,18,9.5,24.8H14
	c0.3-6.8,4.1-17.8,9.5-24.8c3-3.8,4.3-7.5,4.3-9.7C27.8,6.3,21.6,0,13.9,0z M13.9,19C10.6,19,8,16.3,8,13.1s2.6-5.9,5.9-5.9
	c3.3,0,5.9,2.6,5.9,5.9S17.2,19,13.9,19z"/>
</svg>
