<svg width="25" height="25" viewBox="0 0 46 46" fill="none" xmlns="http://www.w3.org/2000/svg">
<path d="M42.182 4.46201H3.81799C2.34599 4.46201 1.14999 5.65801 1.14999 7.13001V29.486C1.14999 30.958 2.34599 32.154 3.81799 32.154H8.41799V39.192C8.41799 41.308 10.994 42.366 12.466 40.848L21.16 32.108H42.228C43.7 32.108 44.896 30.912 44.896 29.44V7.13001C44.85 5.65801 43.654 4.46201 42.182 4.46201Z" fill="black"/>
<path d="M23.1408 28.2739C24.6398 27.92 25.5682 26.4179 25.2143 24.9188C24.8604 23.4198 23.3583 22.4914 21.8592 22.8453C20.3602 23.1992 19.4318 24.7013 19.7857 26.2004C20.1396 27.6994 21.6417 28.6278 23.1408 28.2739Z" fill="white"/>
<path d="M22.5 8.6515C20.6489 8.6515 18.775 9.15714 18.775 10.1234C18.775 10.1358 18.7758 10.1482 18.7774 10.1604C19.1491 12.9217 20.5154 21.9309 22.5 21.9309C24.4846 21.9309 25.851 12.9217 26.2226 10.1604C26.2242 10.1482 26.2251 10.1358 26.2251 10.1234C26.2251 9.15714 24.3511 8.6515 22.5 8.6515Z" fill="white"/>
</svg>
