<?xml version="1.0" encoding="utf-8"?>
<!-- Generator: Adobe Illustrator 15.1.0, SVG Export Plug-In  -->
<!DOCTYPE svg PUBLIC "-//W3C//DTD SVG 1.1//EN" "http://www.w3.org/Graphics/SVG/1.1/DTD/svg11.dtd" [
	<!ENTITY ns_flows "http://ns.adobe.com/Flows/1.0/">
]>
<svg version="1.1"
	 xmlns="http://www.w3.org/2000/svg" xmlns:xlink="http://www.w3.org/1999/xlink" xmlns:a="http://ns.adobe.com/AdobeSVGViewerExtensions/3.0/"
	 x="0px" y="0px" width="110px" height="65px" viewBox="0 0 110 65"
	 xml:space="preserve">
<defs>
</defs>
<path fill="#FFFFFF" d="M26.949,8.347c0,4.074-3.251,7.381-7.256,7.381c-4.011,0-7.26-3.307-7.26-7.381
	c0-4.071,3.249-7.376,7.26-7.376C23.698,0.971,26.949,4.276,26.949,8.347z"/>
<path fill="#FFFFFF" d="M58.934,48.649c0,0.71-0.58,1.291-1.293,1.291H1.292C0.583,49.94,0,49.359,0,48.649v-5.421
	c0-0.714,0.583-1.296,1.292-1.296h56.349c0.713,0,1.293,0.582,1.293,1.296V48.649z"/>
<polygon fill="#FFFFFF" points="25.567,16.965 19.69,27.011 13.816,16.965 "/>
<path fill="#FFFFFF" d="M6.838,40.412l3.836-13.629c0,0,0.289-0.592,0.785-0.435c0.495,0.155,0.422,0.619,0.422,0.619l-2.25,13.444
	h20.116l-2.244-13.444c0,0-0.08-0.464,0.416-0.619c0.494-0.157,0.787,0.435,0.787,0.435l3.835,13.629h5.809
	c-0.191-0.729-4.723-18.039-6.01-20.069c-1.314-2.07-3.583-3.765-5.333-3.305c-0.724,0.19-7.315,11.983-7.315,11.983
	s-6.595-11.793-7.319-11.983c-1.753-0.46-4.021,1.235-5.333,3.305c-1.287,2.03-5.822,19.339-6.013,20.069H6.838z"/>
<path fill="#FFFFFF" d="M46.09,0c-4.329,0-7.838,3.509-7.838,7.838c0,4.329,3.509,7.838,7.838,7.838s7.838-3.509,7.838-7.838
	C53.928,3.509,50.419,0,46.09,0z M46.09,14.697c-3.788,0-6.859-3.071-6.859-6.859c0-3.788,3.071-6.859,6.859-6.859
	s6.859,3.071,6.859,6.859C52.949,11.626,49.878,14.697,46.09,14.697z"/>
<path fill="#FFFFFF" d="M46.09,1.959c-3.248,0-5.879,2.632-5.879,5.879c0,3.246,2.631,5.879,5.879,5.879s5.879-2.633,5.879-5.879
	C51.969,4.591,49.338,1.959,46.09,1.959z M46.139,8.327l-3.38-3.379l0.614-0.615l2.766,2.765l2.15-2.15l0.615,0.614L46.139,8.327z"
	/>
</svg>
