<?xml version="1.0" encoding="utf-8"?>
<!-- Generator: Adobe Illustrator 15.1.0, SVG Export Plug-In  -->
<!DOCTYPE svg PUBLIC "-//W3C//DTD SVG 1.1//EN" "http://www.w3.org/Graphics/SVG/1.1/DTD/svg11.dtd" [
	<!ENTITY ns_flows "http://ns.adobe.com/Flows/1.0/">
]>
<svg version="1.1"
	 xmlns="http://www.w3.org/2000/svg" xmlns:xlink="http://www.w3.org/1999/xlink" xmlns:a="http://ns.adobe.com/AdobeSVGViewerExtensions/3.0/"
	 x="0px" y="0px" width="110px" height="65px" viewBox="0 0 110 65" style="enable-background:new 0 0 110 65;"
	 xml:space="preserve">
<defs>
</defs>
<circle style="fill:#ffffff;" cx="14" cy="40.7" r="1.4"/>
<circle style="fill:#ffffff;" cx="27.5" cy="41" r="1.4"/>
<circle style="fill:#ffffff;" cx="20.7" cy="34.7" r="1.4"/>
<circle style="fill:#ffffff;" cx="20.6" cy="47.4" r="1.4"/>
<path style="fill:#ffffff;" d="M14.9,35.2c-0.6,0.6-0.6,1.4,0,2c0.5,0.6,1.4,0.6,2,0c0.6-0.5,0.6-1.4,0-2
	C16.4,34.7,15.5,34.7,14.9,35.2z"/>
<path style="fill:#ffffff;" d="M24.3,44.8c-0.6,0.6-0.6,1.4,0,2c0.5,0.5,1.4,0.5,2,0c0.6-0.6,0.6-1.4,0-2
	C25.7,44.3,24.8,44.3,24.3,44.8z"/>
<circle style="fill:#ffffff;" cx="25" cy="36.6" r="1.4"/>
<circle style="fill:#ffffff;" cx="15.8" cy="45.7" r="1.4"/>
<path style="fill:#ffffff;" d="M41.5,20.1C41.5,9,32.2,0,20.7,0C9.3,0,0,9,0,20.1c0,7.5,4.2,14,10.4,17.5c-0.3,1-0.5,2.2-0.5,3.3
	c0,6,4.9,10.9,10.9,10.9c6,0,10.9-4.9,10.9-10.9c0-1.2-0.2-2.3-0.5-3.3C37.3,34.1,41.5,27.6,41.5,20.1z M6.4,15.5c0-3.3,2.7-6,6-6
	s6,2.7,6,6c0,3.3-2.7,6-6,6S6.4,18.8,6.4,15.5z M20.6,50.3c-5.2,0-9.4-4.2-9.4-9.4c0-5.2,4.2-9.4,9.4-9.4c5.2,0,9.4,4.2,9.4,9.4
	C30,46.1,25.8,50.3,20.6,50.3z M30.3,21.9c-3.3,0-6-2.7-6-6c0-3.3,2.7-6,6-6s6,2.7,6,6C36.3,19.2,33.6,21.9,30.3,21.9z"/>
</svg>
